# Blender v2.80 (sub 59) OBJ File: 'handgun.blend'
# www.blender.org
mtllib handgun.mtl
o Plane.001
v -0.091065 -0.106512 -0.000000
v 0.114122 -0.103771 -0.000000
v -0.074694 0.108574 0.000000
v 0.137493 0.069976 0.000000
v 0.086445 -0.115134 -0.000000
v 0.082070 0.339852 0.000000
v -0.055031 0.177180 0.000000
v 0.022001 -0.110083 -0.000000
v -0.053165 0.143079 0.000000
v -0.031449 -0.108588 -0.000000
v -0.085627 -0.083384 -0.000000
v 0.102328 -0.073735 -0.000000
v 0.057285 -0.057304 -0.000000
v 0.009797 -0.042719 -0.000000
v -0.034916 -0.028986 -0.000000
v 0.114182 -0.067043 -0.000000
v 0.047928 -0.017327 -0.000000
v 0.008192 -0.000504 -0.000000
v -0.029221 0.015336 0.000000
v -0.120468 -0.065177 -0.000000
v 0.102049 -0.018098 -0.000000
v 0.063051 0.030892 0.000000
v 0.006778 0.036704 0.000000
v -0.024201 0.054402 0.000000
v -0.123897 -0.026164 -0.000000
v 0.122368 0.032431 0.000000
v 0.067367 0.080202 0.000000
v 0.005737 0.064095 0.000000
v -0.020506 0.083160 0.000000
v -0.098179 0.054206 0.000000
v 0.074279 0.355433 0.000000
v -0.010885 0.371940 0.000000
v 0.055834 -0.112735 -0.000000
v 0.011494 0.156244 0.000000
v 0.034728 -0.050376 -0.000000
v 0.029053 -0.009336 -0.000000
v 0.036321 0.033653 0.000000
v 0.038093 0.072551 0.000000
v 0.037462 0.361391 0.000000
v 0.591933 0.217994 0.000000
v 0.546897 0.342449 0.000000
v 0.571381 0.217047 0.000000
v 0.469215 0.341502 0.000000
v 0.349108 0.338580 0.000000
v 0.573323 0.190753 0.000000
v 0.197469 0.342654 0.000000
v 0.393119 0.184440 0.000000
v 0.586733 0.303688 0.000000
v 0.584687 0.344756 0.009449
v 0.602907 0.236745 0.011016
v 0.556853 0.350071 0.013435
v -0.103990 0.325690 0.000000
v -0.078402 0.322601 0.000000
v -0.059963 0.322930 0.000000
v -0.109189 0.310418 0.000000
v -0.083413 0.288119 0.000000
v -0.039319 0.347435 0.000000
v -0.172348 0.213679 0.000000
v -0.174660 0.228156 0.000000
v -0.153317 0.224393 0.000000
v -0.135362 0.202094 0.000000
v -0.082041 0.196292 0.000000
v -0.094782 0.226412 0.000000
v 0.288702 0.080404 0.000000
v 0.372263 0.106229 0.000000
v 0.121250 0.340803 0.000000
v 0.192998 0.213121 0.000000
v 0.232983 0.202917 0.000000
v 0.246572 0.236917 0.000000
v 0.358676 0.116992 0.000000
v 0.158381 0.341705 0.000000
v 0.172429 0.096657 0.000584
v 0.381109 0.169457 0.000000
v 0.201844 0.187710 0.000000
v 0.357094 0.177613 0.000000
v 0.202546 0.086100 0.000000
v 0.209141 0.220291 0.000000
v 0.361160 0.153973 0.000000
v 0.374747 0.148424 0.000000
v 0.244321 0.080645 0.000000
v 0.132439 0.341075 0.000000
v 0.361221 0.130268 0.000000
v 0.380022 0.122112 0.000000
v 0.096837 0.340210 0.000000
v 0.158413 0.123928 0.000000
v 0.289709 0.092706 0.000000
v 0.176846 0.144690 0.000364
v 0.225432 0.104678 0.000000
v 0.265241 0.093328 0.000000
v 0.226078 0.227814 0.000000
v 0.289885 0.202332 0.000000
v 0.144177 0.341360 0.000000
v 0.340843 0.090832 0.000000
v 0.341850 0.103134 0.000000
v 0.261657 0.109065 0.009447
v 0.318550 0.108486 0.030515
v 0.239875 0.180364 0.000000
v 0.265492 0.177172 0.000000
v 0.247479 0.155476 0.000000
v 0.257454 0.154891 0.000000
v 0.254570 0.132269 0.000000
v 0.269759 0.126470 0.000000
v -0.091106 -0.106487 0.096991
v 0.114081 -0.103746 0.096991
v -0.074736 0.108598 0.096991
v 0.137451 0.070000 0.096991
v 0.086404 -0.115109 0.096991
v 0.082028 0.339876 0.096991
v -0.055072 0.177204 0.096991
v 0.021960 -0.110059 0.096991
v -0.053207 0.143104 0.096991
v -0.031490 -0.108564 0.096991
v -0.085668 -0.083360 0.096991
v 0.102287 -0.073711 0.096991
v 0.057244 -0.057280 0.096991
v 0.009755 -0.042695 0.096991
v -0.034957 -0.028962 0.096991
v 0.114140 -0.067019 0.096991
v 0.047886 -0.017303 0.096991
v 0.008151 -0.000479 0.096991
v -0.029262 0.015361 0.096991
v -0.120509 -0.065152 0.096991
v 0.102008 -0.018073 0.096991
v 0.063010 0.030916 0.096991
v 0.006737 0.036729 0.096991
v -0.024242 0.054426 0.096991
v -0.123938 -0.026140 0.096991
v 0.122326 0.032455 0.096991
v 0.067326 0.080226 0.096991
v 0.005696 0.064119 0.096991
v -0.020547 0.083184 0.096991
v -0.098220 0.054230 0.096991
v 0.074238 0.355457 0.096991
v -0.010926 0.371964 0.096991
v 0.055793 -0.112710 0.096991
v 0.011452 0.156268 0.096991
v 0.034687 -0.050352 0.096991
v 0.029012 -0.009312 0.096991
v 0.036280 0.033677 0.096991
v 0.038051 0.072575 0.096991
v 0.037420 0.361415 0.096991
v 0.591891 0.218018 0.096991
v 0.546856 0.342473 0.096991
v 0.571339 0.217071 0.096991
v 0.469174 0.341526 0.096991
v 0.349066 0.338604 0.096991
v 0.573281 0.190777 0.096991
v 0.197428 0.342678 0.096991
v 0.393078 0.184465 0.096991
v 0.586692 0.303712 0.096991
v 0.586983 0.347607 0.090347
v 0.596883 0.241656 0.080616
v 0.554311 0.348593 0.082585
v -0.104032 0.325714 0.096991
v -0.078443 0.322625 0.096991
v -0.060004 0.322954 0.096991
v -0.109230 0.310442 0.096991
v -0.083455 0.288143 0.096991
v -0.039360 0.347459 0.096991
v -0.172390 0.213703 0.096991
v -0.174702 0.228181 0.096991
v -0.153358 0.224417 0.096991
v -0.135404 0.202118 0.096991
v -0.082083 0.196316 0.096991
v -0.094823 0.226436 0.096991
v 0.288661 0.080428 0.096991
v 0.372222 0.106253 0.096991
v 0.121209 0.340828 0.096991
v 0.192957 0.213145 0.096991
v 0.232942 0.202941 0.096991
v 0.246531 0.236941 0.096991
v 0.358635 0.117016 0.096991
v 0.158340 0.341729 0.096991
v 0.172387 0.096682 0.097575
v 0.381068 0.169482 0.096991
v 0.201803 0.187734 0.096991
v 0.357053 0.177638 0.096991
v 0.202505 0.086125 0.096991
v 0.209100 0.220316 0.096991
v 0.361119 0.153997 0.096991
v 0.374706 0.148448 0.096991
v 0.244279 0.080670 0.096991
v 0.132397 0.341099 0.096991
v 0.361180 0.130292 0.096991
v 0.379981 0.122136 0.096991
v 0.096796 0.340235 0.096991
v 0.158372 0.123952 0.096991
v 0.289668 0.092730 0.096991
v 0.176805 0.144715 0.097355
v 0.225390 0.104703 0.096991
v 0.265200 0.093352 0.096991
v 0.226037 0.227838 0.096991
v 0.289844 0.202356 0.096991
v 0.144136 0.341384 0.096991
v 0.340802 0.090857 0.096991
v 0.341809 0.103159 0.096991
v 0.261624 0.109085 0.087544
v 0.318535 0.108495 0.066475
v 0.239833 0.180388 0.096991
v 0.265450 0.177197 0.096991
v 0.247438 0.155500 0.096991
v 0.257413 0.154915 0.096991
v 0.254529 0.132294 0.096991
v 0.269718 0.126495 0.096991
v 0.082040 0.339869 0.068699
v 0.096808 0.340228 0.068699
v -0.055060 0.177197 0.068698
v -0.082071 0.196309 0.068698
v 0.571351 0.217064 0.068698
v 0.573294 0.190770 0.068698
v 0.202517 0.086118 0.068698
v 0.172399 0.096675 0.069282
v -0.153346 0.224410 0.068698
v -0.094811 0.226429 0.068698
v 0.469186 0.341519 0.068699
v 0.546868 0.342466 0.068699
v 0.340814 0.090850 0.068698
v 0.288673 0.080421 0.068698
v -0.135392 0.202111 0.068698
v -0.172378 0.213696 0.068698
v -0.098208 0.054223 0.068698
v -0.074724 0.108591 0.068698
v 0.349078 0.338597 0.068699
v 0.374718 0.148441 0.068698
v 0.379993 0.122129 0.068698
v 0.393090 0.184458 0.068698
v 0.372234 0.106246 0.068698
v -0.083443 0.288136 0.068699
v 0.121221 0.340820 0.068699
v 0.197440 0.342671 0.068699
v 0.114152 -0.067026 0.068698
v 0.102299 -0.073718 0.068698
v -0.010914 0.371957 0.068699
v 0.037432 0.361408 0.068699
v 0.244291 0.080662 0.068698
v 0.074250 0.355450 0.068699
v 0.381080 0.169474 0.068698
v 0.583223 0.350256 0.068699
v 0.594537 0.303705 0.068699
v 0.132409 0.341092 0.068699
v 0.600992 0.225801 0.068698
v 0.055805 -0.112718 0.068698
v 0.021972 -0.110066 0.068698
v -0.120497 -0.065159 0.068698
v -0.123926 -0.026147 0.068698
v -0.091094 -0.106494 0.068698
v -0.085656 -0.083367 0.068698
v 0.553360 0.352853 0.068699
v 0.114093 -0.103754 0.068698
v 0.086416 -0.115116 0.068698
v 0.144148 0.341377 0.068699
v 0.158352 0.341722 0.068699
v 0.591904 0.218011 0.068698
v 0.137464 0.069993 0.068698
v 0.122338 0.032448 0.068698
v -0.053195 0.143097 0.068698
v -0.104019 0.325707 0.068699
v -0.078431 0.322618 0.068699
v 0.102020 -0.018081 0.068698
v -0.059992 0.322947 0.068699
v -0.039348 0.347452 0.068699
v -0.031478 -0.108571 0.068698
v -0.109218 0.310435 0.068699
v -0.174690 0.228174 0.068698
v 0.096826 0.340217 0.024890
v -0.082052 0.196298 0.024890
v 0.573312 0.190759 0.024890
v 0.172418 0.096664 0.025474
v -0.094792 0.226418 0.024890
v 0.546886 0.342455 0.024890
v 0.288692 0.080410 0.024890
v -0.172359 0.213685 0.024890
v -0.074705 0.108580 0.024890
v 0.380012 0.122118 0.024890
v 0.393109 0.184447 0.024890
v -0.083424 0.288125 0.024890
v 0.121239 0.340809 0.024890
v 0.102318 -0.073729 0.024890
v 0.037451 0.361397 0.024890
v 0.381099 0.169464 0.024890
v 0.592473 0.303694 0.024890
v 0.132428 0.341081 0.024890
v 0.601011 0.225790 0.024890
v 0.021990 -0.110077 0.024890
v -0.123907 -0.026158 0.024890
v -0.085638 -0.083378 0.024890
v 0.553378 0.352842 0.024890
v 0.086435 -0.115127 0.024890
v 0.158371 0.341711 0.024890
v 0.591922 0.218000 0.024890
v 0.122357 0.032437 0.024890
v -0.053176 0.143086 0.024890
v -0.078412 0.322607 0.024890
v -0.059973 0.322936 0.024890
v -0.039330 0.347441 0.024890
v -0.031460 -0.108582 0.024890
v -0.174671 0.228163 0.024890
v 0.082059 0.339858 0.024890
v -0.055041 0.177186 0.024890
v 0.571370 0.217053 0.024890
v 0.202536 0.086107 0.024890
v -0.153327 0.224399 0.024890
v 0.469205 0.341508 0.024890
v 0.340833 0.090839 0.024890
v -0.135373 0.202100 0.024890
v -0.098190 0.054212 0.024890
v 0.349097 0.338586 0.024890
v 0.374736 0.148430 0.024890
v 0.372252 0.106235 0.024890
v 0.197458 0.342660 0.024890
v 0.114171 -0.067037 0.024890
v -0.010896 0.371946 0.024890
v 0.244310 0.080651 0.024890
v 0.074269 0.355439 0.024890
v 0.583242 0.350245 0.024890
v 0.055823 -0.112728 0.024890
v -0.120478 -0.065170 0.024890
v -0.091076 -0.106505 0.024890
v 0.114111 -0.103764 0.024890
v 0.144167 0.341366 0.024890
v 0.137482 0.069982 0.024890
v -0.104001 0.325696 0.024890
v 0.102038 -0.018092 0.024890
v -0.109200 0.310424 0.024890
vn -0.0000 0.0000 -1.0000
vn -0.5360 -0.1026 -0.8380
vn 0.5972 0.2366 -0.7664
vn 0.0252 -0.0084 -0.9996
vn -0.0112 0.0013 -0.9999
vn 0.0119 -0.0081 -0.9999
vn 0.1928 -0.5359 -0.8220
vn 0.0000 -0.0000 1.0000
vn -0.5448 -0.1270 0.8289
vn 0.7620 0.2835 0.5823
vn -0.0252 0.0084 0.9996
vn 0.0112 -0.0013 0.9999
vn -0.0119 0.0081 0.9999
vn 0.1928 -0.5357 0.8221
vn 0.8944 0.0000 -0.4472
vn -0.0243 0.9997 -0.0003
vn 0.8646 -0.5024 0.0005
vn -0.5776 -0.8163 -0.0000
vn 0.9973 0.0737 0.0004
vn -0.3308 -0.9437 0.0001
vn -0.0345 0.9994 -0.0003
vn -0.0122 0.9999 -0.0003
vn 0.1961 -0.9806 0.0003
vn -0.2989 -0.9543 0.0001
vn -0.9180 0.3965 -0.0005
vn -0.1961 0.9806 -0.0003
vn -0.9855 -0.1695 -0.0004
vn -0.6357 0.7719 -0.0005
vn 0.9805 0.1966 0.0004
vn -0.1082 -0.9941 0.0002
vn 0.0350 -0.9994 0.0003
vn 0.4400 -0.8980 0.0004
vn -0.9834 0.1812 -0.0005
vn -0.0103 -0.9999 0.0002
vn 0.0269 0.9996 -0.0002
vn -0.9564 -0.2922 -0.0003
vn 0.4917 -0.8708 0.0004
vn 0.2132 0.9770 -0.0002
vn 0.7180 -0.6961 0.0005
vn -0.1295 -0.9916 0.0002
vn -0.0054 -1.0000 0.0002
vn 0.8944 0.4472 0.0003
vn 0.4388 -0.8986 0.0004
vn 0.7803 -0.6254 0.0005
vn 0.9881 0.1268 0.0875
vn 0.9407 -0.3393 0.0005
vn -1.0000 -0.0026 -0.0004
vn 0.9637 0.0850 0.2530
vn -0.0781 -0.9969 0.0002
vn -0.9962 -0.0876 -0.0004
vn 0.8985 -0.4390 0.0005
vn -0.9735 0.2289 -0.0005
vn -0.7231 0.6854 0.0852
vn 0.3798 -0.9251 0.0004
vn 0.9282 -0.3038 0.2150
vn 0.9177 0.3973 0.0003
vn 0.9276 -0.3737 0.0005
vn 0.0331 0.9819 0.1865
vn -0.8484 0.5293 -0.0005
vn 0.1199 0.9928 -0.0002
vn 0.3459 0.9383 -0.0001
vn 0.9706 0.2406 0.0004
vn -0.0178 0.9998 -0.0003
vn 0.1598 0.9872 -0.0002
vn -0.9821 0.1883 -0.0005
vn -0.7648 0.6443 -0.0005
vn -0.0280 -0.9996 0.0002
vn -0.9467 0.3222 -0.0005
vn -0.9524 0.3048 -0.0005
vn 0.2742 0.9617 -0.0001
vn 0.6070 -0.7947 0.0005
vn 0.6357 0.7719 0.0001
vn -0.9985 -0.0546 -0.0004
vn 0.9572 -0.2895 0.0005
vn -0.6543 -0.7563 -0.0001
vn -0.0348 -0.9994 0.0002
vn -0.6528 0.7575 -0.0005
vn 0.0254 0.9997 -0.0002
vn -0.4632 -0.8863 0.0000
vn -0.9875 -0.1577 -0.0004
vn 0.0460 -0.9989 0.0003
vn 0.9278 -0.3731 0.0005
vn 0.9308 0.3655 0.0003
vn -0.3452 -0.9385 0.0001
vn 0.1736 0.9848 -0.0002
vn 0.0866 0.9962 -0.0002
vn 0.6508 -0.7593 0.0005
vn -0.8480 0.5300 -0.0005
vn 0.9951 0.0958 -0.0232
vn 0.9763 0.2154 -0.0228
vn 0.9824 0.1398 -0.1236
vn 0.9851 0.1642 -0.0513
vn -0.6866 0.7170 -0.1206
vn 0.8153 -0.5665 -0.1199
vn 0.1122 0.9555 -0.2729
usemtl None
s off
f 27//1 6//1 4//1 26//1
f 38//1 34//1 6//1 27//1
f 29//1 9//1 7//1 28//1
f 30//1 3//1 9//1 29//1
f 1//1 11//1 15//1 10//1
f 10//1 15//1 14//1 8//1
f 33//1 35//1 13//1 5//1
f 5//1 13//1 12//1 2//1
f 11//1 20//1 19//1 15//1
f 15//1 19//1 18//1 14//1
f 35//1 36//1 17//1 13//1
f 13//1 17//1 16//1 12//1
f 20//1 25//1 24//1 19//1
f 19//1 24//1 23//1 18//1
f 36//1 37//1 22//1 17//1
f 17//1 22//1 21//1 16//1
f 25//1 30//1 29//1 24//1
f 24//1 29//1 28//1 23//1
f 37//1 38//1 27//1 22//1
f 22//1 27//1 26//1 21//1
f 34//1 39//1 31//1 6//1
f 7//1 32//1 39//1 34//1
f 23//1 28//1 38//1 37//1
f 18//1 23//1 37//1 36//1
f 14//1 18//1 36//1 35//1
f 8//1 14//1 35//1 33//1
f 28//1 7//1 34//1 38//1
f 43//1 41//1 40//1 42//1
f 44//1 43//1 42//1 45//1
f 46//1 44//1 45//1 47//1
f 71//1 46//1 47//1 69//1
f 51//2 49//2 48//2 50//2
f 41//3 51//3 50//3 40//3
f 55//1 52//1 53//1 54//1
f 56//1 55//1 54//1 57//1
f 7//1 56//1 57//1 32//1
f 61//1 58//1 59//1 60//1
f 62//1 61//1 60//1 63//1
f 7//1 62//1 63//1 56//1
f 89//1 86//1 64//1 80//1
f 81//1 92//1 90//1 77//1
f 84//1 66//1 67//1 85//1
f 83//1 65//1 70//1 82//1
f 92//1 71//1 69//1 90//1
f 47//1 73//1 75//1 69//1
f 77//1 68//1 74//1 67//1
f 85//4 87//4 72//4 4//4
f 73//1 79//1 78//1 75//1
f 69//1 75//1 91//1 90//1
f 87//5 88//5 76//5 72//5
f 79//1 83//1 82//1 78//1
f 66//1 81//1 77//1 67//1
f 88//1 89//1 80//1 76//1
f 67//6 74//6 87//6 85//6
f 6//1 84//1 85//1 4//1
f 90//1 91//1 68//1 77//1
f 86//1 94//1 93//1 64//1
f 70//1 65//1 93//1 94//1
f 102//7 96//7 95//7 101//7
f 91//1 98//1 97//1 68//1
f 98//1 100//1 99//1 97//1
f 100//1 102//1 101//1 99//1
f 97//1 99//1 68//1
f 129//8 128//8 106//8 108//8
f 140//8 129//8 108//8 136//8
f 131//8 130//8 109//8 111//8
f 132//8 131//8 111//8 105//8
f 103//8 112//8 117//8 113//8
f 112//8 110//8 116//8 117//8
f 135//8 107//8 115//8 137//8
f 107//8 104//8 114//8 115//8
f 113//8 117//8 121//8 122//8
f 117//8 116//8 120//8 121//8
f 137//8 115//8 119//8 138//8
f 115//8 114//8 118//8 119//8
f 122//8 121//8 126//8 127//8
f 121//8 120//8 125//8 126//8
f 138//8 119//8 124//8 139//8
f 119//8 118//8 123//8 124//8
f 127//8 126//8 131//8 132//8
f 126//8 125//8 130//8 131//8
f 139//8 124//8 129//8 140//8
f 124//8 123//8 128//8 129//8
f 136//8 108//8 133//8 141//8
f 109//8 136//8 141//8 134//8
f 125//8 139//8 140//8 130//8
f 120//8 138//8 139//8 125//8
f 116//8 137//8 138//8 120//8
f 110//8 135//8 137//8 116//8
f 130//8 140//8 136//8 109//8
f 145//8 144//8 142//8 143//8
f 146//8 147//8 144//8 145//8
f 148//8 149//8 147//8 146//8
f 173//8 171//8 149//8 148//8
f 153//9 152//9 150//9 151//9
f 143//10 142//10 152//10 153//10
f 157//8 156//8 155//8 154//8
f 158//8 159//8 156//8 157//8
f 109//8 134//8 159//8 158//8
f 163//8 162//8 161//8 160//8
f 164//8 165//8 162//8 163//8
f 109//8 158//8 165//8 164//8
f 191//8 182//8 166//8 188//8
f 183//8 179//8 192//8 194//8
f 186//8 187//8 169//8 168//8
f 185//8 184//8 172//8 167//8
f 194//8 192//8 171//8 173//8
f 149//8 171//8 177//8 175//8
f 179//8 169//8 176//8 170//8
f 187//11 106//11 174//11 189//11
f 175//8 177//8 180//8 181//8
f 171//8 192//8 193//8 177//8
f 189//12 174//12 178//12 190//12
f 181//8 180//8 184//8 185//8
f 168//8 169//8 179//8 183//8
f 190//8 178//8 182//8 191//8
f 169//13 187//13 189//13 176//13
f 108//8 106//8 187//8 186//8
f 192//8 179//8 170//8 193//8
f 188//8 166//8 195//8 196//8
f 172//8 196//8 195//8 167//8
f 204//14 203//14 197//14 198//14
f 193//8 170//8 199//8 200//8
f 200//8 199//8 201//8 202//8
f 202//8 201//8 203//8 204//8
f 199//15 170//15 201//15
f 206//16 205//16 108//16 186//16
f 87//17 74//17 176//17 189//17
f 208//18 207//18 109//18 164//18
f 210//19 209//19 144//19 147//19
f 212//20 211//20 178//20 174//20
f 214//21 213//21 162//21 165//21
f 216//22 215//22 145//22 143//22
f 218//23 217//23 195//23 166//23
f 220//24 219//24 163//24 160//24
f 222//25 221//25 132//25 105//25
f 94//26 86//26 188//26 196//26
f 75//27 78//27 180//27 177//27
f 215//16 223//16 146//16 145//16
f 70//28 94//28 196//28 172//28
f 225//29 224//29 181//29 185//29
f 219//30 208//30 164//30 163//30
f 226//31 210//31 147//31 149//31
f 217//32 227//32 167//32 195//32
f 228//33 214//33 165//33 158//33
f 95//34 96//34 198//34 197//34
f 229//16 206//16 186//16 168//16
f 223//35 230//35 148//35 146//35
f 101//36 95//36 197//36 203//36
f 232//37 231//37 118//37 114//37
f 234//38 233//38 134//38 141//38
f 98//39 91//39 193//39 200//39
f 211//40 235//40 182//40 178//40
f 235//41 218//41 166//41 182//41
f 205//42 236//42 133//42 108//42
f 74//43 68//43 170//43 176//43
f 237//44 226//44 149//44 175//44
f 239//45 238//45 151//45 150//45
f 100//46 98//46 200//46 202//46
f 78//47 82//47 184//47 180//47
f 240//16 229//16 168//16 183//16
f 241//48 239//48 150//48 152//48
f 243//49 242//49 135//49 110//49
f 245//50 244//50 122//50 127//50
f 227//51 225//51 185//51 167//51
f 247//52 246//52 103//52 113//52
f 248//53 216//53 143//53 153//53
f 250//54 249//54 104//54 107//54
f 252//16 251//16 194//16 173//16
f 253//55 241//55 152//55 142//55
f 102//56 100//56 202//56 204//56
f 255//57 254//57 106//57 128//57
f 238//58 248//58 153//58 151//58
f 251//16 240//16 183//16 194//16
f 256//59 222//59 105//59 111//59
f 99//36 101//36 203//36 201//36
f 242//49 250//49 107//49 135//49
f 258//60 257//60 154//60 155//60
f 96//61 102//61 204//61 198//61
f 231//62 259//62 123//62 118//62
f 260//63 258//63 155//63 156//63
f 236//64 234//64 141//64 133//64
f 230//16 252//16 173//16 148//16
f 68//36 99//36 201//36 170//36
f 82//65 70//65 172//65 184//65
f 261//66 260//66 156//66 159//66
f 262//67 243//67 110//67 112//67
f 257//68 263//68 157//68 154//68
f 221//69 245//69 127//69 132//69
f 89//70 88//70 190//70 191//70
f 254//71 212//71 174//71 106//71
f 88//72 87//72 189//72 190//72
f 207//73 256//73 111//73 109//73
f 224//74 237//74 175//74 181//74
f 263//75 228//75 158//75 157//75
f 246//76 262//76 112//76 103//76
f 233//77 261//77 159//77 134//77
f 86//78 89//78 191//78 188//78
f 244//79 247//79 113//79 122//79
f 264//80 220//80 160//80 161//80
f 209//81 253//81 142//81 144//81
f 259//82 255//82 128//82 123//82
f 249//83 232//83 114//83 104//83
f 91//84 75//84 177//84 193//84
f 213//85 264//85 161//85 162//85
f 302//85 297//85 264//85 213//85
f 319//83 278//83 232//83 249//83
f 323//82 291//82 255//82 259//82
f 300//81 290//81 253//81 209//81
f 297//80 272//80 220//80 264//80
f 317//79 286//79 247//79 244//79
f 312//77 295//77 261//77 233//77
f 318//76 296//76 262//76 246//76
f 324//75 276//75 228//75 263//75
f 308//74 280//74 237//74 224//74
f 299//73 292//73 256//73 207//73
f 321//71 268//71 212//71 254//71
f 306//69 285//69 245//69 221//69
f 322//68 324//68 263//68 257//68
f 296//67 284//67 243//67 262//67
f 295//66 294//66 260//66 261//66
f 310//16 289//16 252//16 230//16
f 314//64 279//64 234//64 236//64
f 294//63 293//63 258//63 260//63
f 311//62 323//62 259//62 231//62
f 293//60 322//60 257//60 258//60
f 316//49 288//49 250//49 242//49
f 292//59 273//59 222//59 256//59
f 320//16 282//16 240//16 251//16
f 315//86 287//86 248//86 238//86
f 291//57 321//57 254//57 255//57
f 290//87 283//87 241//87 253//87
f 289//16 320//16 251//16 252//16
f 288//54 319//54 249//54 250//54
f 287//88 270//88 216//88 248//88
f 286//52 318//52 246//52 247//52
f 309//51 274//51 225//51 227//51
f 285//50 317//50 244//50 245//50
f 284//49 316//49 242//49 243//49
f 283//89 281//89 239//89 241//89
f 282//16 277//16 229//16 240//16
f 281//90 315//90 238//90 239//90
f 280//44 275//44 226//44 237//44
f 298//42 314//42 236//42 205//42
f 313//41 271//41 218//41 235//41
f 301//40 313//40 235//40 211//40
f 279//38 312//38 233//38 234//38
f 278//37 311//37 231//37 232//37
f 307//35 310//35 230//35 223//35
f 277//16 265//16 206//16 229//16
f 276//33 269//33 214//33 228//33
f 304//32 309//32 227//32 217//32
f 275//31 267//31 210//31 226//31
f 305//30 266//30 208//30 219//30
f 274//29 308//29 224//29 225//29
f 303//16 307//16 223//16 215//16
f 273//25 306//25 221//25 222//25
f 272//24 305//24 219//24 220//24
f 271//23 304//23 217//23 218//23
f 270//22 303//22 215//22 216//22
f 269//21 302//21 213//21 214//21
f 268//20 301//20 211//20 212//20
f 267//19 300//19 209//19 210//19
f 266//18 299//18 207//18 208//18
f 265//16 298//16 205//16 206//16
f 84//16 6//16 298//16 265//16
f 62//18 7//18 299//18 266//18
f 45//19 42//19 300//19 267//19
f 72//20 76//20 301//20 268//20
f 63//21 60//21 302//21 269//21
f 41//22 43//22 303//22 270//22
f 64//23 93//23 304//23 271//23
f 58//24 61//24 305//24 272//24
f 3//25 30//25 306//25 273//25
f 43//16 44//16 307//16 303//16
f 83//29 79//29 308//29 274//29
f 61//30 62//30 266//30 305//30
f 47//31 45//31 267//31 275//31
f 93//32 65//32 309//32 304//32
f 56//33 63//33 269//33 276//33
f 66//16 84//16 265//16 277//16
f 44//35 46//35 310//35 307//35
f 12//37 16//37 311//37 278//37
f 39//38 32//38 312//38 279//38
f 76//40 80//40 313//40 301//40
f 80//41 64//41 271//41 313//41
f 6//42 31//42 314//42 298//42
f 73//44 47//44 275//44 280//44
f 48//91 49//91 315//91 281//91
f 81//16 66//16 277//16 282//16
f 50//92 48//92 281//92 283//92
f 8//49 33//49 316//49 284//49
f 25//50 20//50 317//50 285//50
f 65//51 83//51 274//51 309//51
f 11//52 1//52 318//52 286//52
f 51//93 41//93 270//93 287//93
f 5//54 2//54 319//54 288//54
f 71//16 92//16 320//16 289//16
f 40//94 50//94 283//94 290//94
f 26//57 4//57 321//57 291//57
f 49//95 51//95 287//95 315//95
f 92//16 81//16 282//16 320//16
f 9//59 3//59 273//59 292//59
f 33//49 5//49 288//49 316//49
f 53//60 52//60 322//60 293//60
f 16//62 21//62 323//62 311//62
f 54//63 53//63 293//63 294//63
f 31//64 39//64 279//64 314//64
f 46//16 71//16 289//16 310//16
f 57//66 54//66 294//66 295//66
f 10//67 8//67 284//67 296//67
f 52//68 55//68 324//68 322//68
f 30//69 25//69 285//69 306//69
f 4//71 72//71 268//71 321//71
f 7//73 9//73 292//73 299//73
f 79//74 73//74 280//74 308//74
f 55//75 56//75 276//75 324//75
f 1//76 10//76 296//76 318//76
f 32//77 57//77 295//77 312//77
f 20//79 11//79 286//79 317//79
f 59//80 58//80 272//80 297//80
f 42//81 40//81 290//81 300//81
f 21//82 26//82 291//82 323//82
f 2//83 12//83 278//83 319//83
f 60//85 59//85 297//85 302//85
